<svg xmlns="http://www.w3.org/2000/svg" width="151.031" height="154" viewBox="0 0 151.031 154">
  <g id="Group_4460" data-name="Group 4460" transform="translate(-62 -178.381)">
    <path id="Path_8760" data-name="Path 8760" d="M199.407,428.855a50.543,50.543,0,0,0,0-101.085c-27.08,0-49.647,22.566-49.647,50.543s22.567,50.542,49.647,50.542Z" transform="translate(-36.918 -128.276)" fill="#36f38e" opacity="0.2"/>
    <path id="Path_8761" data-name="Path 8761" d="M179.623,388.575a30.4,30.4,0,0,0,0-60.8c-16.289,0-29.863,13.574-29.863,30.4s13.574,30.4,29.863,30.4Z" transform="translate(-77.419 -77.734)" fill="#36f38e" opacity="0.2"/>
    <g id="Group_4269" data-name="Group 4269" transform="translate(76.499 205.941)">
      <circle id="Ellipse_591" data-name="Ellipse 591" cx="55.881" cy="55.881" r="55.881" transform="translate(0 0)" fill="#36f38e"/>
      <path id="fi-rr-check" d="M49.811,4.794,18.949,35.654a2.233,2.233,0,0,1-3.165,0L3.85,23.708a2.233,2.233,0,0,0-3.165,0h0a2.233,2.233,0,0,0,0,3.165L12.624,38.809a6.718,6.718,0,0,0,9.492,0L52.975,7.956a2.233,2.233,0,0,0,0-3.162h0a2.233,2.233,0,0,0-3.165,0Z" transform="translate(28.97 33.319)" fill="#fff"/>
    </g>
    <path id="Path_1015" data-name="Path 1015" d="M153.774,335.942a4.087,4.087,0,1,0-4.014-4.086,4.078,4.078,0,0,0,4.014,4.086Z" transform="translate(9.126 -135.138)" fill="#36f38e"/>
    <path id="Path_1016" data-name="Path 1016" d="M206.011,172.612a.259.259,0,1,1,0-.518,5.515,5.515,0,0,0,1.2-.135.259.259,0,0,1,.116.5,6.1,6.1,0,0,1-1.32.148Zm-1.26-.14a.422.422,0,0,1-.057-.005,5.945,5.945,0,0,1-1.252-.437.259.259,0,1,1,.225-.466,5.26,5.26,0,0,0,1.144.4.257.257,0,0,1,.194.311A.26.26,0,0,1,204.751,172.472Zm3.719-.422a.259.259,0,0,1-.114-.492,5.633,5.633,0,0,0,1.025-.644.26.26,0,0,1,.323.406,5.957,5.957,0,0,1-1.12.706A.309.309,0,0,1,208.469,172.05Zm-5.991-.67a.249.249,0,0,1-.16-.057,6.066,6.066,0,0,1-.939-.937.26.26,0,1,1,.406-.323,5.348,5.348,0,0,0,.857.854.261.261,0,0,1,.041.365A.267.267,0,0,1,202.479,171.38Zm7.96-.9a.249.249,0,0,1-.16-.057.261.261,0,0,1-.041-.365,5.416,5.416,0,0,0,.644-1.025.259.259,0,1,1,.466.225,5.893,5.893,0,0,1-.706,1.123A.258.258,0,0,1,210.439,170.477Zm-9.536-1.064a.26.26,0,0,1-.233-.145,5.808,5.808,0,0,1-.44-1.252.259.259,0,1,1,.5-.116,5.385,5.385,0,0,0,.4,1.141.261.261,0,0,1-.119.347A.269.269,0,0,1,200.9,169.413Zm10.63-1.208a.422.422,0,0,1-.057-.005.257.257,0,0,1-.194-.311,5.5,5.5,0,0,0,.135-1.2.271.271,0,0,1,.259-.272.249.249,0,0,1,.259.246h-.259l.259.016a5.925,5.925,0,0,1-.148,1.325A.264.264,0,0,1,211.533,168.205Zm-11.195-1.255a.254.254,0,0,1-.259-.254v-.01a5.986,5.986,0,0,1,.145-1.307.258.258,0,0,1,.5.111,5.42,5.42,0,0,0-.132,1.193A.265.265,0,0,1,200.339,166.95Zm11.187-1.289a.255.255,0,0,1-.251-.2,5.441,5.441,0,0,0-.4-1.141.259.259,0,1,1,.466-.228,5.843,5.843,0,0,1,.442,1.25.259.259,0,0,1-.194.311A.234.234,0,0,1,211.526,165.661ZM200.893,164.5a.25.25,0,0,1-.111-.026.258.258,0,0,1-.122-.344,5.887,5.887,0,0,1,.7-1.123.26.26,0,0,1,.406.323,5.42,5.42,0,0,0-.642,1.027A.269.269,0,0,1,200.893,164.5Zm9.531-1.1a.264.264,0,0,1-.2-.1,5.471,5.471,0,0,0-.859-.854.258.258,0,0,1,.321-.4,6.068,6.068,0,0,1,.942.934.259.259,0,0,1-.039.365A.274.274,0,0,1,210.423,163.394Zm-7.963-.872a.264.264,0,0,1-.2-.1.259.259,0,0,1,.039-.365,5.889,5.889,0,0,1,1.12-.709.259.259,0,1,1,.228.466,5.407,5.407,0,0,0-1.022.647A.261.261,0,0,1,202.461,162.522Zm5.985-.694a.25.25,0,0,1-.111-.026,5.442,5.442,0,0,0-1.144-.4.258.258,0,0,1,.111-.5,5.864,5.864,0,0,1,1.255.435.257.257,0,0,1,.122.344A.253.253,0,0,1,208.446,161.829Zm-3.719-.406a.255.255,0,0,1-.251-.2.259.259,0,0,1,.194-.311,5.907,5.907,0,0,1,1.317-.15h0a.259.259,0,1,1,0,.518,5.5,5.5,0,0,0-1.2.137A.215.215,0,0,1,204.728,161.422Z" transform="translate(-136.31 143.279)" fill="#36f38e"/>
    <path id="Path_1017" data-name="Path 1017" d="M656.817,495.766a2.053,2.053,0,1,0-2.017-2.053,2.049,2.049,0,0,0,2.017,2.053Z" transform="translate(-586.529 -286.021)" fill="#36f38e"/>
    <path id="Path_8763" data-name="Path 8763" d="M656.817,495.766a2.053,2.053,0,1,0-2.017-2.053,2.049,2.049,0,0,0,2.017,2.053Z" transform="translate(-512.826 -163.385)" fill="#36f38e"/>
    <g id="Group_3918" data-name="Group 3918" transform="translate(191.782 295.41)">
      <rect id="Rectangle_1736" data-name="Rectangle 1736" width="3.142" height="0.776" transform="translate(0 4.78)" fill="#36f38e"/>
      <rect id="Rectangle_1737" data-name="Rectangle 1737" width="3.041" height="0.776" transform="translate(7.3 4.78)" fill="#36f38e"/>
      <rect id="Rectangle_1738" data-name="Rectangle 1738" width="0.776" height="3.041" transform="translate(4.78 0)" fill="#36f38e"/>
      <rect id="Rectangle_1739" data-name="Rectangle 1739" width="0.776" height="3.144" transform="translate(4.78 7.194)" fill="#36f38e"/>
    </g>
    <g id="Group_3919" data-name="Group 3919" transform="translate(62 252.517)">
      <rect id="Rectangle_1736-2" data-name="Rectangle 1736" width="3.142" height="0.776" transform="translate(0 4.78)" fill="#36f38e"/>
      <rect id="Rectangle_1737-2" data-name="Rectangle 1737" width="3.041" height="0.776" transform="translate(7.3 4.78)" fill="#36f38e"/>
      <rect id="Rectangle_1738-2" data-name="Rectangle 1738" width="0.776" height="3.041" transform="translate(4.78 0)" fill="#36f38e"/>
      <rect id="Rectangle_1739-2" data-name="Rectangle 1739" width="0.776" height="3.144" transform="translate(4.78 7.194)" fill="#36f38e"/>
    </g>
    <path id="Path_8762" data-name="Path 8762" d="M206.011,172.612a.259.259,0,1,1,0-.518,5.515,5.515,0,0,0,1.2-.135.259.259,0,0,1,.116.5,6.1,6.1,0,0,1-1.32.148Zm-1.26-.14a.422.422,0,0,1-.057-.005,5.945,5.945,0,0,1-1.252-.437.259.259,0,1,1,.225-.466,5.26,5.26,0,0,0,1.144.4.257.257,0,0,1,.194.311A.26.26,0,0,1,204.751,172.472Zm3.719-.422a.259.259,0,0,1-.114-.492,5.633,5.633,0,0,0,1.025-.644.26.26,0,0,1,.323.406,5.957,5.957,0,0,1-1.12.706A.309.309,0,0,1,208.469,172.05Zm-5.991-.67a.249.249,0,0,1-.16-.057,6.066,6.066,0,0,1-.939-.937.26.26,0,1,1,.406-.323,5.348,5.348,0,0,0,.857.854.261.261,0,0,1,.041.365A.267.267,0,0,1,202.479,171.38Zm7.96-.9a.249.249,0,0,1-.16-.057.261.261,0,0,1-.041-.365,5.416,5.416,0,0,0,.644-1.025.259.259,0,1,1,.466.225,5.893,5.893,0,0,1-.706,1.123A.258.258,0,0,1,210.439,170.477Zm-9.536-1.064a.26.26,0,0,1-.233-.145,5.808,5.808,0,0,1-.44-1.252.259.259,0,1,1,.5-.116,5.385,5.385,0,0,0,.4,1.141.261.261,0,0,1-.119.347A.269.269,0,0,1,200.9,169.413Zm10.63-1.208a.422.422,0,0,1-.057-.005.257.257,0,0,1-.194-.311,5.5,5.5,0,0,0,.135-1.2.271.271,0,0,1,.259-.272.249.249,0,0,1,.259.246h-.259l.259.016a5.925,5.925,0,0,1-.148,1.325A.264.264,0,0,1,211.533,168.205Zm-11.195-1.255a.254.254,0,0,1-.259-.254v-.01a5.986,5.986,0,0,1,.145-1.307.258.258,0,0,1,.5.111,5.42,5.42,0,0,0-.132,1.193A.265.265,0,0,1,200.339,166.95Zm11.187-1.289a.255.255,0,0,1-.251-.2,5.441,5.441,0,0,0-.4-1.141.259.259,0,1,1,.466-.228,5.843,5.843,0,0,1,.442,1.25.259.259,0,0,1-.194.311A.234.234,0,0,1,211.526,165.661ZM200.893,164.5a.25.25,0,0,1-.111-.026.258.258,0,0,1-.122-.344,5.887,5.887,0,0,1,.7-1.123.26.26,0,0,1,.406.323,5.42,5.42,0,0,0-.642,1.027A.269.269,0,0,1,200.893,164.5Zm9.531-1.1a.264.264,0,0,1-.2-.1,5.471,5.471,0,0,0-.859-.854.258.258,0,0,1,.321-.4,6.068,6.068,0,0,1,.942.934.259.259,0,0,1-.039.365A.274.274,0,0,1,210.423,163.394Zm-7.963-.872a.264.264,0,0,1-.2-.1.259.259,0,0,1,.039-.365,5.889,5.889,0,0,1,1.12-.709.259.259,0,1,1,.228.466,5.407,5.407,0,0,0-1.022.647A.261.261,0,0,1,202.461,162.522Zm5.985-.694a.25.25,0,0,1-.111-.026,5.442,5.442,0,0,0-1.144-.4.258.258,0,0,1,.111-.5,5.864,5.864,0,0,1,1.255.435.257.257,0,0,1,.122.344A.253.253,0,0,1,208.446,161.829Zm-3.719-.406a.255.255,0,0,1-.251-.2.259.259,0,0,1,.194-.311,5.907,5.907,0,0,1,1.317-.15h0a.259.259,0,1,1,0,.518,5.5,5.5,0,0,0-1.2.137A.215.215,0,0,1,204.728,161.422Z" transform="translate(-93.166 17.621)" fill="#36f38e"/>
  </g>
</svg>
