<svg id="Group_4269" data-name="Group 4269" xmlns="http://www.w3.org/2000/svg" width="111.762" height="111.762" viewBox="0 0 111.762 111.762">
  <circle id="Ellipse_591" data-name="Ellipse 591" cx="55.881" cy="55.881" r="55.881" transform="translate(0 0)" fill="#36f38e"/>
  <path id="fi-rr-check" d="M49.811,4.794,18.949,35.654a2.233,2.233,0,0,1-3.165,0L3.85,23.708a2.233,2.233,0,0,0-3.165,0h0a2.233,2.233,0,0,0,0,3.165L12.624,38.809a6.718,6.718,0,0,0,9.492,0L52.975,7.956a2.233,2.233,0,0,0,0-3.162h0a2.233,2.233,0,0,0-3.165,0Z" transform="translate(28.97 33.319)" fill="#fff"/>
</svg>
